HIERARCHY
ROOT Hips
{
	OFFSET 0.000000 0.000000 0.000000 
	CHANNELS 6 Xposition Yposition Zposition Zrotation Yrotation Xrotation
	JOINT LeftUpLeg
	{
		OFFSET 1.363060 -1.794630 0.839290 
		CHANNELS 3 Zrotation Yrotation Xrotation
		JOINT LeftLeg
		{
			OFFSET 2.448110 -6.726130 0.000000 
			CHANNELS 3 Zrotation Yrotation Xrotation
			JOINT LeftFoot
			{
				OFFSET 2.562200 -7.039590 0.000000 
				CHANNELS 3 Zrotation Yrotation Xrotation
				JOINT LeftToeBase
				{
					OFFSET 0.157640 -0.433110 2.322550 
					CHANNELS 3 Zrotation Yrotation Xrotation
					End Site
					{
						OFFSET 0.000000 0.000000 0.000000 
					}
				}
			}
		}
	}
	JOINT RightUpLeg
	{
		OFFSET -1.305520 -1.794630 0.839290 
		CHANNELS 3 Zrotation Yrotation Xrotation
		JOINT RightLeg
		{
			OFFSET -2.542530 -6.985550 0.000000 
			CHANNELS 3 Zrotation Yrotation Xrotation
			JOINT RightFoot
			{
				OFFSET -2.568260 -7.056230 0.000000 
				CHANNELS 3 Zrotation Yrotation Xrotation
				JOINT RightToeBase
				{
					OFFSET -0.164730 -0.452590 2.363150 
					CHANNELS 3 Zrotation Yrotation Xrotation
					End Site
					{
						OFFSET 0.000000 0.000000 0.000000 
					}
				}
			}
		}
	}
	JOINT Spine
	{
		OFFSET 0.028270 2.035590 -0.193380 
		CHANNELS 3 Zrotation Yrotation Xrotation
		JOINT Spine1
		{
			OFFSET 0.056720 2.048850 -0.042750 
			CHANNELS 3 Zrotation Yrotation Xrotation
			JOINT Neck1
			{
				OFFSET -0.054170 1.746240 0.172020 
				CHANNELS 3 Zrotation Yrotation Xrotation
				JOINT Head
				{
					OFFSET 0.104070 1.761360 -0.123970 
					CHANNELS 3 Zrotation Yrotation Xrotation
					End Site
					{
						OFFSET 0.000000 0.000000 0.000000 
					}
				}
			}
			JOINT LeftArm
			{
				OFFSET 3.362410 1.200890 -0.311210 
				CHANNELS 3 Zrotation Yrotation Xrotation
				JOINT LeftForeArm
				{
					OFFSET 4.983000 -0.000000 -0.000000 
					CHANNELS 3 Zrotation Yrotation Xrotation
					JOINT LeftHand
					{
						OFFSET 3.483560 -0.000000 -0.000000 
						CHANNELS 3 Zrotation Yrotation Xrotation
						JOINT LeftHandIndex1
						{
							OFFSET 0.715260 -0.000000 -0.000000 
							CHANNELS 3 Zrotation Yrotation Xrotation
							End Site
							{
								OFFSET 0.000000 0.000000 0.000000 
							}
						}
					}
				}
			}
			JOINT RightArm
			{
				OFFSET -3.136600 1.374050 -0.404650 
				CHANNELS 3 Zrotation Yrotation Xrotation
				JOINT RightForeArm
				{
					OFFSET -5.241900 -0.000000 -0.000000 
					CHANNELS 3 Zrotation Yrotation Xrotation
					JOINT RightHand
					{
						OFFSET -3.444170 -0.000000 -0.000000 
						CHANNELS 3 Zrotation Yrotation Xrotation
						JOINT RightHandIndex1
						{
							OFFSET -0.622530 -0.000000 -0.000000 
							CHANNELS 3 Zrotation Yrotation Xrotation
							End Site
							{
								OFFSET 0.000000 0.000000 0.000000 
							}
						}
					}
				}
			}
		}
	}
}
MOTION
Frames: 13
Frame Time: 0.041667
11.118434 17.502076 -12.464367 -2.057111 -13.806923 -4.122484 -17.055462 13.512592 13.893569 4.045778 12.408352 36.283381 1.518055 10.544444 32.634471 0.410200 -4.111600 -11.390900 22.527619 11.460729 -15.421984 -0.704734 -11.333550 28.121008 4.533957 -18.415108 -7.646621 -0.001900 0.282100 -0.775100 1.583483 -3.130812 -1.763662 1.941972 -1.511971 -0.347575 7.361208 -13.840055 1.055285 2.855300 -6.612900 -3.917600 -56.898191 4.866569 32.673735 37.378880 -46.346842 -23.334341 -1.183423 -3.790213 -62.362170 -7.125000 0.000000 0.000000 71.145989 18.755440 60.594784 -49.223316 51.080485 -27.021139 2.371453 -0.011537 -9.774896 7.125000 0.000000 0.000000 
10.994708 17.518415 -12.276467 -2.687838 -13.776515 -4.178077 -16.595201 12.554460 12.063245 5.072545 13.543441 40.148993 1.820486 10.950185 34.345547 0.206300 -2.924400 -8.068200 23.762952 11.245627 -14.393532 -0.681332 -11.225534 28.005420 4.476369 -18.275888 -8.049767 -0.000000 0.007700 -0.021200 1.623167 -3.068029 -1.758643 1.835479 -1.467813 -0.364726 7.385362 -13.973985 1.093173 2.884600 -6.678700 -3.847700 -57.240474 5.420948 32.822164 37.133003 -46.290961 -23.114813 -1.189000 -3.778771 -62.276634 -7.125000 0.000000 0.000000 71.540064 18.639125 61.190678 -48.721055 50.923593 -26.562776 2.380213 -0.007209 -9.942188 7.125000 0.000000 0.000000 
10.872810 17.531637 -12.090718 -3.321601 -13.742603 -4.204164 -16.190898 11.521542 10.242934 6.070432 14.541871 43.829995 2.060694 10.695033 35.350530 0.099500 -2.034500 -5.601000 24.995750 10.979501 -13.409529 -0.653639 -11.113871 27.874816 4.392204 -18.058652 -8.504179 -0.001500 -0.248700 0.683300 1.663896 -3.003065 -1.744427 1.727378 -1.423594 -0.321678 7.415120 -14.115713 1.098922 2.920800 -6.745900 -3.801400 -57.587681 5.906884 32.927229 36.884450 -46.229802 -22.893892 -1.195791 -3.764993 -62.194609 -7.125000 0.000000 0.000000 71.897638 18.589101 61.770278 -48.240549 50.769649 -26.126836 2.389411 0.000629 -10.147202 7.125000 0.000000 0.000000 
10.752954 17.541634 -11.906473 -3.927231 -13.690983 -4.223978 -15.866730 10.419606 8.453202 7.014154 15.409238 47.290728 2.165751 9.910345 35.485756 0.052800 -1.483300 -4.079700 26.187775 10.666342 -12.454820 -0.625659 -11.001548 27.740878 4.291117 -17.793883 -9.010586 -0.005300 -0.469200 1.289300 1.703858 -2.941454 -1.723143 1.624485 -1.381405 -0.232271 7.447493 -14.261318 1.091334 2.960400 -6.813800 -3.765200 -57.943585 6.334926 32.990877 36.619217 -46.155637 -22.658984 -1.209228 -3.746212 -62.062310 -7.125000 0.000000 0.000000 72.224032 18.587496 62.334068 -47.773998 50.616048 -25.707092 2.398634 0.010299 -10.358011 7.125000 0.000000 0.000000 
10.634925 17.548836 -11.723733 -4.504832 -13.620967 -4.240278 -15.609455 9.258607 6.688907 7.889509 16.156589 50.503051 2.126664 8.760309 34.783058 0.037500 -1.250500 -3.438200 27.335254 10.314618 -11.526635 -0.598704 -10.890941 27.608888 4.181055 -17.509462 -9.568257 -0.010100 -0.648300 1.781600 1.743250 -2.882321 -1.700535 1.533795 -1.340702 -0.133345 7.481390 -14.409923 1.082708 3.002400 -6.882500 -3.729000 -58.313739 6.726245 33.023849 36.328533 -46.063221 -22.401777 -1.231791 -3.720900 -61.846833 -7.125000 0.000000 0.000000 72.520732 18.605352 62.874045 -47.313257 50.458009 -25.297420 2.407910 0.020644 -10.548088 7.125000 0.000000 0.000000 
10.519369 17.553781 -11.542928 -5.063818 -13.533075 -4.254279 -15.398527 8.039687 4.941095 8.692463 16.797627 53.441392 1.972179 7.473446 33.397699 0.037100 -1.242600 -3.416500 28.439253 9.912318 -10.634336 -0.574207 -10.785028 27.484181 4.060823 -17.200589 -10.143164 -0.014800 -0.785400 2.158500 1.781480 -2.826988 -1.680164 1.448631 -1.302366 -0.061406 7.396984 -14.556992 1.277274 3.303300 -6.935600 -4.010300 -58.680455 7.106028 33.063988 36.022787 -45.959636 -22.130499 -1.262864 -3.692191 -61.548915 -7.125000 0.000000 0.000000 72.798270 18.621603 63.392740 -46.851331 50.294147 -24.891080 2.416290 0.029132 -10.693196 7.125000 0.000000 0.000000 
10.407253 17.555716 -11.366530 -5.584545 -13.393056 -4.308400 -15.262323 6.730572 3.230579 9.420475 17.347918 56.083940 1.764282 6.211905 31.615436 0.042900 -1.336400 -3.674900 29.465326 9.407047 -9.777464 -0.555365 -10.684657 27.376765 3.927568 -16.851703 -10.702851 -0.018900 -0.888600 2.442400 1.816688 -2.783627 -1.669933 1.365172 -1.270524 -0.065650 7.422805 -14.699608 1.290421 3.337600 -7.004300 -3.947600 -59.041888 7.488432 33.101950 35.698329 -45.835290 -21.841640 -1.300270 -3.660861 -61.171839 -7.125000 0.000000 0.000000 73.062450 18.619222 63.878973 -46.385646 50.113991 -24.484585 2.424195 0.034496 -10.790140 7.125000 0.000000 0.000000 
10.298361 17.555071 -11.193250 -6.055359 -13.243728 -4.369536 -15.195374 5.376934 1.519511 10.064613 17.818693 58.402246 1.540355 5.057300 29.610149 0.050900 -1.456600 -4.006100 30.397687 8.820974 -8.990593 -0.542686 -10.595147 27.293843 3.779322 -16.451454 -11.211501 -0.021800 -0.953500 2.620800 1.847099 -2.732463 -1.667664 1.284765 -1.235917 -0.125341 7.443582 -14.840959 1.317744 3.362700 -7.074400 -3.871100 -59.398245 7.865070 33.144817 35.356985 -45.694702 -21.538461 -1.339165 -3.630747 -60.755862 -7.125000 0.000000 0.000000 73.313887 18.602310 64.329366 -45.911414 49.919978 -24.075515 2.431581 0.037172 -10.849103 7.125000 0.000000 0.000000 
10.192265 17.551094 -11.022871 -6.474073 -13.096163 -4.437391 -15.186278 4.002479 -0.189532 10.610878 18.218850 60.381645 1.327047 3.935014 27.449001 0.063100 -1.621300 -4.460200 31.238180 8.164185 -8.273693 -0.538774 -10.520461 27.245433 3.628240 -16.037110 -11.661002 -0.021900 -0.954400 2.623500 1.871730 -2.671529 -1.670819 1.202669 -1.197651 -0.227182 7.464914 -14.978492 1.354720 3.384200 -7.144200 -3.784900 -59.751930 8.231335 33.176413 35.000009 -45.538180 -21.223685 -1.376231 -3.603106 -60.341495 -7.125000 0.000000 0.000000 73.554373 18.581551 64.755667 -45.436476 49.716146 -23.668671 2.438547 0.038351 -10.895988 7.125000 0.000000 0.000000 
10.087781 17.544429 -10.853568 -6.821881 -12.982661 -4.497286 -15.234381 2.653583 -1.896865 11.047207 18.555533 62.003654 1.138661 2.795145 25.148284 0.077100 -1.791300 -4.929100 31.975508 7.483285 -7.620598 -0.544135 -10.463289 27.238673 3.475624 -15.613515 -12.069954 -0.019600 -0.903400 2.483200 1.888957 -2.589765 -1.674742 1.122237 -1.149940 -0.330062 7.485869 -15.110196 1.400246 3.401200 -7.212200 -3.694600 -60.102767 8.575049 33.176078 34.621713 -45.364808 -20.896325 -1.408106 -3.579847 -59.972028 -7.125000 0.000000 0.000000 73.796834 18.572020 65.163025 -44.961091 49.505757 -23.264059 2.444952 0.039478 -10.952405 7.125000 0.000000 0.000000 
9.983404 17.535399 -10.683728 -7.112898 -12.941481 -4.527862 -15.293860 1.397120 -3.615948 11.367649 18.833969 63.267032 0.993747 1.547007 22.726752 0.096900 -2.007500 -5.526300 32.639913 6.825135 -7.024459 -0.557937 -10.426242 27.277103 3.320168 -15.182361 -12.466781 -0.016100 -0.819800 2.253100 1.899550 -2.475238 -1.676859 1.048729 -1.086293 -0.409238 7.511544 -15.237312 1.450117 3.420500 -7.278200 -3.603300 -60.451474 8.899684 33.143471 34.232381 -45.182448 -20.565893 -1.434619 -3.561627 -59.666561 -7.125000 0.000000 0.000000 74.038546 18.580852 65.559232 -44.497604 49.295944 -22.870793 2.450832 0.043200 -11.048970 7.125000 0.000000 0.000000 
9.878275 17.524113 -10.513135 -7.335079 -12.984135 -4.526833 -15.361157 0.259021 -5.343953 11.576858 19.060697 64.176398 0.894373 0.242946 20.209392 0.122700 -2.257900 -6.218900 33.223218 6.199482 -6.481871 -0.580119 -10.409173 27.363325 3.156814 -14.729103 -12.867642 -0.012800 -0.729200 2.004000 1.902499 -2.325741 -1.676495 0.986052 -1.005200 -0.458951 7.542365 -15.359445 1.503416 3.441500 -7.341900 -3.512900 -60.790862 9.212837 33.075455 33.837186 -44.994825 -20.238211 -1.456037 -3.548006 -59.429806 -7.125000 0.000000 0.000000 74.289809 18.613583 65.958205 -44.049132 49.088964 -22.489666 2.456156 0.050216 -11.198877 7.125000 0.000000 0.000000 
9.771533 17.510891 -10.341897 -7.489824 -13.110850 -4.503472 -15.432001 -0.753419 -7.069529 11.685239 19.241304 64.750977 0.836821 -1.036972 17.629635 0.160100 -2.577700 -7.105200 33.729683 5.609786 -5.982342 -0.610460 -10.410867 27.495549 2.987878 -14.260047 -13.267462 -0.009600 -0.633900 1.741800 1.897701 -2.141482 -1.673874 0.936012 -0.906535 -0.486815 7.581770 -15.480058 1.554467 3.468300 -7.404700 -3.426600 -61.114537 9.524085 32.975065 33.447248 -44.808257 -19.922330 -1.471623 -3.538072 -59.259003 -7.125000 0.000000 0.000000 74.555820 18.669068 66.356792 -43.619595 48.886538 -22.123597 2.460766 0.060565 -11.404245 7.125000 0.000000 0.000000 
